<svg version="1.2" xmlns="http://www.w3.org/2000/svg" viewBox="0 0 138 100" width="138" height="100"><style>.a{fill:#fff}</style><path fill-rule="evenodd" class="a" d="m155.7-8.9v117.1h-172.7v-117.1z"/><path  d="m72.6 12.4c-12 5-11.5 4.8-11.5 5.1 0 0.3 0.3 0.5 2.7 1.4 1.2 0.5 5.8 2.4 10.1 4.1 4.4 1.8 8.1 3.3 8.3 3.3 0.2 0 1.5-0.5 2.9-1.1 1.3-0.6 5.3-2.2 8.9-3.6l6.3-2.6v4c0 3.7 0 4.1-0.3 4.5-0.3 0.4-0.4 0.7-0.4 3.8v3.3h1.6 1.6v-3.4c0-3-0.1-3.4-0.4-3.8-0.3-0.4-0.3-0.7-0.4-4.7v-4.2l0.9-0.3q1.3-0.4 0.7-0.9c-0.2-0.2-5.1-2.2-18.4-7.7-1.4-0.6-2.8-1.1-3-1.1-0.2 0-4.5 1.8-9.6 3.9z"/><path  d="m67.2 23.4c0 0.8 0.4 2.6 0.8 3.1l0.4 0.7-0.6 1c-1.8 2.8-1.9 5.7-0.5 8.8 0.7 1.4 2.7 3.5 4.2 4.2 0.6 0.3 1.6 0.6 2.1 0.7 1.2 0.3 3.6 0.2 4.9-0.3 0.6-0.2 1.1-0.4 1.1-0.4 0.1 0 1.4 1.9 1.9 2.9l0.6 1.1 0.6-1.1c0.3-0.6 0.9-1.5 1.2-2 0.6-0.7 0.8-0.9 1.1-0.8 3.2 1.1 5.2 1 7.6-0.2 0.4-0.2 0.9-0.4 0.9-0.4 0 0.1-0.2 0.9-0.5 1.9-1.4 3.9-3.2 7-5.9 9.7-2.2 2.1-3.8 3.2-8.3 5.5q-8.6 4.5-12.6 8.5c-2.5 2.6-3.5 4.7-3.5 7.5-0.1 5.2 4.7 11.1 14.5 18.3 2.6 1.8 2.7 1.9-1-1.9-7-7.4-9.6-13.1-8.1-18 0.3-0.9 1.2-2.3 2-2.9l0.5-0.4 1 1.6c0.5 0.9 3.4 5.8 6.3 11.1 3 5.2 5.7 9.8 6 10.2 0.4 0.4 1 1.1 1.5 1.4 1.4 1 2.1 1.1 7.1 1 4.1 0 4.5-0.1 5.2-0.4 1.6-0.7 2.9-2.2 3.4-3.9 0.1-0.4 1.1-3.3 2.1-6.4 1-3.1 3.8-12 6.3-19.8 2.5-7.7 5.7-17.7 7.2-22.1 1.4-4.4 2.6-8.1 2.6-8.1 0-0.1-2.6-0.1-5.7-0.1-5.5 0.1-5.8 0.1-6.6 0.5-1.1 0.5-2.1 1.4-2.6 2.4-0.2 0.5-0.8 2.1-1.3 3.7-0.5 1.6-3 9.5-5.6 17.6-2.5 8.1-4.9 15.5-5.2 16.4-0.3 1-0.6 1.8-0.7 1.8 0 0-0.1-0.1-0.2-0.4-0.1-0.2-2.1-3.6-4.3-7.5-2.3-3.8-4.1-7.1-4.1-7.2 0-0.1 0.3-0.3 0.6-0.5 1.9-1.2 5.1-4.1 6.8-6.2 2.8-3.4 5-7.9 6.2-12.4 0.8-3.1 1-4.8 1-7.9 0-3.3-0.1-3.9-1.3-5.6l-0.5-0.8 0.5-0.7c0.3-0.5 0.9-2.7 0.7-3.1-0.1-0.1-5.3 1.4-7.3 2.2-2.7 1-5.7 3.3-7 5.3l-0.6 1-0.5-0.8c-0.8-1.2-3.1-3.3-4.5-4.2-2-1.2-4-1.9-9.6-3.6-0.2-0.1-0.3-0.1-0.3 0zm6.1 5c2.2 1 2.4 1.1 1.5 1.2-0.7 0.2-1.7 1.1-2.1 2-1.2 2.6 1.4 5.2 4.1 4.2 1-0.4 1.6-1.1 2-2.3l0.3-0.9 0.6 1.3c0.4 0.7 0.7 1.6 0.8 1.9 0.2 0.7 0.1 0.7-0.6 1.5-0.5 0.4-1.3 1-1.8 1.3-0.8 0.4-1.1 0.4-2.6 0.4-1.4 0-1.8 0-2.6-0.4-1.3-0.7-2.5-1.9-3.1-3.1-0.4-0.9-0.5-1.2-0.5-2.6 0.1-1.5 0.1-1.8 0.5-2.6 0.3-0.5 0.8-1.3 1.2-1.7 0.8-0.8 0.8-0.8 2.3-0.2zm19.9 0.4c1.2 1.3 1.5 2.1 1.5 4.1 0 1.4-0.1 1.8-0.5 2.6-0.6 1.3-1.8 2.5-3 3.1-0.9 0.4-1.2 0.4-2.6 0.4-1.3 0-1.7 0-2.5-0.4-1.1-0.6-2.4-1.6-2.5-2.1-0.1-0.4 0.6-2.3 1.3-3.4l0.4-0.7 0.1 0.8c0.5 2.6 3.4 3.7 5.3 2 0.7-0.7 1-1.3 1-2.4 0-1.5-0.9-2.6-2.4-3.2l-0.5-0.2 0.9-0.4c1.1-0.6 2.1-1 2.5-1 0.1 0 0.6 0.4 1 0.8zm-15.6 2.2c0.4 0.2 0.4 0.8 0.1 1.1-0.3 0.4-0.9 0.3-1.1-0.1-0.3-0.5-0.3-0.6 0.1-0.9 0.3-0.4 0.4-0.4 0.9-0.1zm13.1 0.1c0.1 0.1 0.3 0.3 0.3 0.5 0 0.3-0.5 0.7-0.9 0.7-0.7 0-1-0.7-0.5-1.2 0.4-0.4 0.7-0.4 1.1 0z"/><path  d="m16.4 33.7c0.1 0.3 1.6 4.9 3.5 10.6 0.4 1.3 2.2 6.8 4 12.3 1.7 5.5 4.9 15.3 7 21.9 2.6 8 4 12.3 4.4 12.9 0.6 1.1 1.3 1.7 2.5 2.4 0.8 0.4 0.9 0.4 5.9 0.4h5.2l1-0.5c1.7-0.9 2.4-1.8 4.5-5.8l1.9-3.6-0.7-0.6c-1.4-1.5-2.8-4.1-3.6-6.6-0.3-1.2-0.4-1.8-0.4-4.1 0-2.3 0.1-2.9 0.4-4 0.9-3.1 2.7-6 5.2-8.3 1.7-1.6 4-3.1 8.4-5.6 5.3-3 7.5-4.8 7.5-6.2 0-1.4-1.7-3.2-3.5-3.9-0.7-0.2-1.7-0.4-2.9-0.4-3-0.2-5.5 0.7-7.5 2.7-0.9 0.9-1.4 1.8-7.3 13.6-3.5 6.9-6.7 13.2-7.1 13.9l-0.6 1.4-3.6-10.9c-2-6-4.9-14.9-6.5-19.8-3.1-9.4-3.3-9.9-4.7-11-1.4-1-2-1.1-7.8-1.1-5 0-5.3 0-5.2 0.3z"/></svg>